<svg width="20" height="17" viewBox="0 0 20 17" fill="none" xmlns="http://www.w3.org/2000/svg">
<path d="M19.2091 0.856445H0.968989C0.767423 0.856445 0.574113 0.936517 0.431584 1.07905C0.289056 1.22157 0.208984 1.41488 0.208984 1.61645V14.5365C0.208984 14.9397 0.369128 15.3263 0.654184 15.6113C0.939241 15.8964 1.32586 16.0565 1.72899 16.0565H18.4491C18.8522 16.0565 19.2388 15.8964 19.5239 15.6113C19.8089 15.3263 19.9691 14.9397 19.9691 14.5365V1.61645C19.9691 1.41488 19.889 1.22157 19.7465 1.07905C19.604 0.936517 19.4107 0.856445 19.2091 0.856445ZM7.30647 8.45649L1.72899 13.5685V3.34451L7.30647 8.45649ZM8.43128 9.48724L9.57129 10.537C9.7115 10.6657 9.89491 10.7371 10.0852 10.7371C10.2756 10.7371 10.459 10.6657 10.5992 10.537L11.7392 9.48724L17.2492 14.5365H2.92315L8.43128 9.48724ZM12.8716 8.45649L18.4491 3.34356V13.5694L12.8716 8.45649Z" fill="#00B0FC"/>
</svg>
