<svg width="34" height="25" viewBox="0 0 34 25" fill="none" xmlns="http://www.w3.org/2000/svg">
<path d="M17.0891 1.86035C14.8726 1.86287 12.7476 2.74446 11.1804 4.31173C9.61311 5.879 8.73152 8.00395 8.729 10.2204C8.729 17.3739 16.329 22.7766 16.653 23.0027C16.7808 23.0922 16.933 23.1403 17.0891 23.1403C17.2451 23.1403 17.3973 23.0922 17.5251 23.0027C17.8491 22.7766 25.4491 17.3739 25.4491 10.2204C25.4466 8.00395 24.565 5.879 22.9977 4.31173C21.4305 2.74446 19.3055 1.86287 17.0891 1.86035ZM17.0891 7.18038C17.6903 7.18038 18.2781 7.35868 18.778 7.69272C19.2779 8.02676 19.6676 8.50154 19.8977 9.05703C20.1278 9.61252 20.188 10.2238 20.0707 10.8135C19.9534 11.4032 19.6638 11.9449 19.2387 12.37C18.8135 12.7952 18.2718 13.0847 17.6821 13.202C17.0924 13.3193 16.4812 13.2591 15.9257 13.029C15.3702 12.7989 14.8954 12.4093 14.5614 11.9093C14.2273 11.4094 14.049 10.8217 14.049 10.2204C14.049 9.41414 14.3693 8.64089 14.9394 8.07078C15.5095 7.50067 16.2828 7.18038 17.0891 7.18038Z" fill="#00B0FC"/>
</svg>
