<svg width="20" height="20" viewBox="0 0 20 20" fill="none" xmlns="http://www.w3.org/2000/svg">
<path d="M19.958 14.5478C19.7886 15.8351 19.1564 17.0167 18.1795 17.8719C17.2025 18.7272 15.9477 19.1976 14.6493 19.1952C7.10628 19.1952 0.969247 13.0582 0.969247 5.51515C0.966919 4.21677 1.4373 2.96194 2.29254 1.98502C3.14778 1.0081 4.32939 0.375913 5.61667 0.20652C5.94219 0.166773 6.27184 0.233369 6.55641 0.396368C6.84097 0.559367 7.06518 0.810025 7.19558 1.11093L9.20199 5.5902V5.6016C9.30183 5.83193 9.34306 6.0834 9.322 6.33356C9.30095 6.58371 9.21827 6.82475 9.08134 7.03516C9.06424 7.06081 9.04619 7.08456 9.02719 7.10831L7.04928 9.45292C7.76083 10.8988 9.27324 12.3979 10.7382 13.1114L13.0505 11.1439C13.0732 11.1248 13.097 11.1071 13.1217 11.0907C13.3319 10.9505 13.5738 10.8649 13.8254 10.8417C14.0771 10.8185 14.3305 10.8584 14.5629 10.9577L14.5752 10.9634L19.0507 12.9689C19.3521 13.0988 19.6034 13.3228 19.7669 13.6074C19.9305 13.8921 19.9975 14.2219 19.958 14.5478Z" fill="#00B0FC"/>
</svg>
